<svg width="29" height="32" viewBox="0 0 29 32" fill="none" xmlns="http://www.w3.org/2000/svg">
<path d="M2.39908e-05 6.6672C2.39908e-05 5.9312 0.555826 5.3328 1.24212 5.3328H5.53549C6.38772 5.3088 7.14007 4.728 7.43006 3.8672L7.47839 3.7152L7.66365 3.12C7.77643 2.7552 7.8747 2.4368 8.01325 2.152C8.55777 1.0288 9.56627 0.2496 10.731 0.0495998C11.0275 -1.60933e-07 11.3384 0 11.6977 0H17.3008C17.66 0 17.9726 -1.60933e-07 18.2674 0.0495998C19.4322 0.2496 20.4423 1.0288 20.9852 2.152C21.1237 2.4368 21.222 2.7552 21.3348 3.12L21.5201 3.7152L21.5684 3.8672C21.8584 4.728 22.7605 5.3104 23.6144 5.3328H27.7547C28.4426 5.3328 28.9984 5.9296 28.9984 6.6672C28.9984 7.4048 28.4426 8 27.7563 8H1.24051C0.554215 8 2.39908e-05 7.4032 2.39908e-05 6.6672ZM14.2688 32H15.5367C19.8978 32 22.0775 32 23.4968 30.6192C24.9145 29.2368 25.0595 26.9712 25.3494 22.4416L25.7683 15.912C25.9262 13.4528 26.0051 12.224 25.2931 11.4448C24.581 10.6656 23.3808 10.6656 20.9771 10.6656H8.82842C6.42639 10.6656 5.22457 10.6656 4.5125 11.4448C3.80042 12.224 3.88098 13.4528 4.03724 15.912L4.45611 22.44C4.74609 26.9728 4.89109 29.2368 6.30878 30.6192C7.72648 32.0016 9.90781 32 14.2688 32Z" fill="#171717"/>
</svg>
